<?xml version="1.0" encoding="utf-8"?>
<!-- Generator: Adobe Illustrator 16.0.0, SVG Export Plug-In . SVG Version: 6.00 Build 0)  -->
<!DOCTYPE svg PUBLIC "-//W3C//DTD SVG 1.1//EN" "http://www.w3.org/Graphics/SVG/1.1/DTD/svg11.dtd">
<svg version="1.1" id="Layer_1" xmlns="http://www.w3.org/2000/svg" xmlns:xlink="http://www.w3.org/1999/xlink" x="0px" y="0px"
	 width="231px" height="281.842px" viewBox="0 0 231 281.842" enable-background="new 0 0 231 281.842" xml:space="preserve">
<image overflow="visible" width="1280" height="800" xlink:href="6C3BC5C9E4F29AB4.jpg"  transform="matrix(1 0 0 1 -980.042 407.3252)">
</image>
<circle fill="#20515D" cx="-340.699" cy="146.154" r="175.5"/>
<path opacity="0.7" fill="#BC9077" d="M196.934,142.769c0,0,1.759-8.104,2.426-8.254s12.319-1.5,15.267,2.143
	s4.875,10.286,5.09,13.5s-3.857,17.861-4.071,19.752s-8.143,17.105-9.214,19.676s-4.286,9.856-6.857,10.071s-5.786,0-5.786,0
	l-0.964,0.366l1.583-30.114l3.493-18.772l-1.624-4.264L196.934,142.769z"/>
<path opacity="0.7" fill="#BC9077" d="M37.72,134.781l8.688,51.088c0,0-0.393,19.712,1.473,22.816s11.408,18.033,11.408,18.033
	s11.447,15.088,12.681,17.554c1.233,2.467,12.332,17.267,13.154,18.499s19.413,11.509,27.177,12.331s20.918,0,25.439-3.699
	s32.475-30.419,32.475-30.419s11.92-14.798,13.564-17.676s8.633-20.263,9.044-23.285s1.583-30.114,1.583-30.114l2.527-13.604v-7.811
	v-3.289v-2.437v-1.917c0,0,0.438-5.456,3.093-6.488s4.424-9.712,4.424-9.712l-3.097-6.065l-14.602-28.597l-11.333-23.584
	c0,0-12.667-10-16-11.333s-25.334,0-30.667,0s-60.666,12-60.666,12l-34,36.667L37.72,134.781z"/>
<path opacity="0.7" fill="#BC9077" d="M34.086,160.455c0,0,2.26,9.973,1.729,12.1s-1.301,3.855,0.081,4.919
	c1.382,1.063,5.104,2.261,5.637,2.261s2.127,0.665,2.792,0s0.836-1.577,0.836-1.577l-0.452-2.709c0,0-0.903-3.973-0.812-3.882
	s-0.903-6.319-0.993-6.139s-1.782-12.496-1.782-12.496L34.086,160.455"/>
<path fill="#191820" d="M163.419,31.073c0,0-29-21-40-21s-35,4-42,10.5s-62,60.5-61,67.5s6.973,10-0.014,13s-11.986,5-9.986,10
	s5,14,5,14c2,9,3,3,2,9s0-15,0,0s-5,8,0,15s10,8,10,8s3.171,0.386,5.137,4.973s1.966,4.587,1.966,4.587s1.311-7.208,0-9.174
	s-1.966-2.622-3.276-6.553s-1.311,1.966-1.311-3.931s-5.242-3.932,0.655-9.174s6.553-7.863,6.553-7.863s7.208-7.208,12.45-11.795
	s7.863-10.484,13.761-9.174s5.241,4.586,13.76,0s15.071-11.139,16.382-16.381s0.655-3.276,6.553-7.863s1.966-5.897,19.658-7.863
	s26.21,1.965,32.107-2.621s1.311,1.311,3.276,6.553s4.587,11.795,12.45,16.382s24.245,19.002,24.245,23.589s2.621-4.587,5.897-0.655
	s3.932,7.863,2.621,10.484s-6.553,15.726-6.553,23.589s0.655,15.727,0.655,15.727s7.818-13.761,6.53-17.037
	s-7.599-17.037,0.144-17.692s11.019-2.621,11.019-2.621s0-11.14,0-17.692s-3.932-8.518,0-9.173s1.311-7.208,0-9.829
	s-7.942-9.884-6.553-11.795c5.242-7.208,10.705-9.174,8.629-12.45s-4.042-9.829-4.042-9.829c3.932-7.208-1.966-16.382-1.966-16.382
	s-3.276,2.621-3.932-3.276s-7.863-7.208-9.829-8.519s-9.174-1.31-14.416-2.621s-11.14,0-11.14,0L163.419,31.073z"/>
<path fill="#191820" d="M29.162,139.149c0,0-7.573,6.398-2.745,9.078s6.653,8.929,7.669,10.822s5.474,2.302,5.721,5.889
	c0.248,3.586-2.391,3.13,0.344,4.972s-1.322-7.567,0-9.92s-0.795-5.176,0.97-7.058s-1.294-3.293,0-4.705s-1.107-2.823,0.563-4.705
	c1.672-1.882,2.143-2.11,2.143-4.373c0-5.037,0.096-5.98,0-7.86c-0.383-7.486-3.064-4.964-0.383-7.486s-0.785,0.615,2.682-2.522
	c3.468-3.137,4.758-13.046,4.287-14.458c-0.47-1.412-22.113,18.35-22.113,18.35L29.162,139.149z"/>
<path fill="#191820" d="M195.914,127.069c-1.642,8.758-4.205,14.013-3.091,19.157s-1.787,5.551-0.272,12.042
	s-1.523,7.338-0.448,11.879s1.963-5.389,1.963-5.389l6.125-7.036l-2.634-10.948l2.747-16.18c0,0,5.929-3.524,5.97-6.809
	s1.239-9.305-1.823-10.947s-6.346-5.473-7.988-3.831s-4.595-0.4-4.595-0.4l-0.082,12.158L195.914,127.069z"/>
<path fill="#191820" d="M154.298,72.639c0,0,6.756,9.061-10.402,9.721s-24.914-5.939-31.595,0
	c-6.682,5.939-10.642,5.28-11.961,10.559c-1.32,5.279-0.66,3.3-3.3,7.919s-3.96,2.998-7.919,7.768
	c-3.96,4.771-7.92,8.73-13.199,10.71s-7.919,0-11.219,0s-3.3,0-3.3,0l0,0c0,0,1.319-2.86-3.3,0.88s0-2.2-4.619,3.74
	s-6.99,5.21-8.324,10.211s-3.477,9.375-3.477,9.375l-11.749,3.454l-1.636-21.803c0,0,7.389-13.829,9.357-18.422
	s9.211-12.428,12.85-16.76s20.796-13.874,24.756-17.352s21.119-9.417,24.418-11.397s32.997-2.64,35.637,0
	s16.498,11.219,16.498,11.219L154.298,72.639z"/>
<path fill="#191820" d="M60.58,123c-5.311,5.311-7.403,10.079-10.074,11.147s-6.959,5.316-5.346,7.972s-1.082,0.154,0,4.856
	s2.144-3.263,1.082,4.703c-1.062,7.966-1.594,5.311-1.062,7.966s-3.271-0.355-2.277,5.784s0.993,6.139,0.993,6.139l-3.745-1.657
	l-6.064-19.293c0,0,1.121-18.056,0-19.649s5.82-17.021,11.074-20.582c5.252-3.562,16.482-7.146,16.482-7.146
	S65.891,117.69,60.58,123z"/>
<g>
	<g id="XMLID_2_">
		<g>
			<path fill="#FFFFFF" d="M192.208,145.171c-1.858,0.199-3.713,0.394-5.884,0.619c1.257-1.648,2.844-1.853,5.815-1.066
				C192.165,144.875,192.187,145.023,192.208,145.171z"/>
			<path d="M66.099,145.649c-0.634-0.04-1.26-0.077-2.214-0.134c0.271-0.508,0.517-0.982,0.837-1.598c-0.541,0-1.413,0-2.285,0
				c-0.004,0.081-0.007,0.165-0.015,0.246c0.409,0,0.815,0,1.239,0C63.151,146.668,63.151,146.668,66.099,145.649z M186.324,145.791
				c2.171-0.226,4.025-0.42,5.884-0.619c-0.021-0.148-0.043-0.296-0.068-0.447C189.168,143.938,187.581,144.143,186.324,145.791z
				 M192.57,138.526c4.019,0.461,4.712,1.332,4.04,5.052c-0.1,0.551-0.229,1.103-0.271,1.661c-0.157,1.91-0.599,3.555-2.83,4.355
				c-0.68,0.242-1.252,1.173-1.53,1.907c-1.875,5.011-3.615,10.069-5.495,15.083c-1.79,4.779-5.327,8.448-8.997,11.953
				c-2.754,2.626-6.417,3.753-10.189,4.456c-6.857,1.285-13.78,1.968-20.62,0.165c-9.646-2.542-15.859-8.381-18.251-17.7
				c-0.641-2.496-1.373-4.988-2.316-7.396c-0.965-2.455-2.776-4.228-5.772-4.295c-3.058-0.07-5.175,1.416-6.456,3.965
				c-0.779,1.564-1.566,3.151-2.11,4.802c-1.303,3.955-3.421,7.463-5.937,10.836c-4.435,5.936-10.446,9.289-17.98,10.352
				c-8.058,1.137-15.848,0.326-23.304-2.818c-4.837-2.042-8.367-5.375-10.656-9.928c-2.441-4.843-3.993-9.932-5.175-15.154
				c-0.33-1.463-0.84-2.936-1.572-4.258c-0.52-0.942-1.41-2.062-2.381-2.344c-1.812-0.524-2.082-1.691-2.442-3.091
				c-0.38-1.483-0.942-2.929-1.526-4.355c-0.416-1.016,0.288-2.597,1.697-3.081c1.04-0.36,2.182-0.562,3.289-0.623
				c6.926-0.376,13.852-0.692,20.777-1.032c13.492-0.229,26.699,1.93,39.906,4.076c3.673,0.599,7.35,1.224,11.037,1.766
				c3.723,0.548,7.307-0.39,10.891-1.133c15.062-3.121,30.286-4.665,45.707-4.17c5.986,0.192,11.962,0.588,17.938,0.895
				C192.218,138.482,192.399,138.506,192.57,138.526z M70.316,145.713c-0.015-0.094-0.036-0.191-0.05-0.286c-0.659,0-1.32,0-2.071,0
				c-0.029-0.528-0.05-0.976-0.071-1.423c-0.16-0.02-0.32-0.043-0.48-0.064c-0.186,0.76-0.363,1.521-0.569,2.385
				C68.341,146.086,69.326,145.898,70.316,145.713z M52.333,145.821c-0.705-2.038-4.214-2.418-6.268-0.696
				C48.247,145.367,50.133,145.579,52.333,145.821z"/>
			<path fill="#FFFFFF" d="M68.124,144.004c0.021,0.447,0.042,0.895,0.071,1.423c0.751,0,1.412,0,2.071,0
				c0.014,0.094,0.035,0.191,0.05,0.286c-0.99,0.185-1.976,0.374-3.242,0.612c0.206-0.864,0.384-1.625,0.569-2.385
				C67.804,143.961,67.964,143.984,68.124,144.004z"/>
			<path fill="#FFFFFF" d="M63.885,145.515c0.954,0.057,1.58,0.094,2.214,0.134c-2.947,1.019-2.947,1.019-2.438-1.486
				c-0.424,0-0.83,0-1.239,0c0.008-0.081,0.011-0.165,0.015-0.246c0.872,0,1.744,0,2.285,0
				C64.401,144.533,64.155,145.007,63.885,145.515z"/>
			<path fill="#FFFFFF" d="M46.065,145.125c2.054-1.722,5.562-1.342,6.268,0.696C50.133,145.579,48.247,145.367,46.065,145.125z"/>
		</g>
		<g>
		</g>
	</g>
</g>
<path opacity="0.8" fill="#BC9077" d="M-398.068,128.513c0,0-6.833-10.762-6.833-11.287c0-0.526,27.903-60.425,27.903-60.425
	s70.955,13.38,73.792,15.002s16.219,14.597,17.03,15.812c0.811,1.216,26.354,18.246,26.354,18.246s-2.837,45.006-4.054,48.25
	c-1.216,3.243,0,19.867,0,19.867s-8.108,19.867-8.108,23.111c0,3.243-14.597,25.949-16.22,30.814
	c-1.622,4.866-8.107,10.137-10.136,13.38c-2.027,3.243-12.163,8.109-27.977,7.704s-34.463-17.03-44.6-27.571
	c-10.136-10.542-13.785-24.327-13.785-24.327c-3.65-6.488-8.104-27.536-8.104-27.536c-1.578-16.565-7.774-44.386-8.545-44.825"/>
<path d="M-419.099,42.023c0,0-17.355,62.057-18.933,73.626c-1.578,11.57-4.733,10.879-7.363,27.791
	c-2.63,16.911-10.704,27.616-7.889,35.844s4.85,15.176,7.922,20.174s10.377,38.727,10.377,38.727
	c1.683,7.89,6.716,15.508,6.716,19.421s25.436,41.412,25.762,41.412s12.391-18.913,13.695-30.325s13.362-31.033,14.939-35.767
	s2.955-11.509,2.955-11.509s-17.266-32.72-19.021-39.817s-3.829-22.528-4.539-34.457c-0.71-11.93-4.822-35.176-4.822-35.176
	s11.752-11.043,17.011-21.562c5.259-10.518,10.397-17.469,10.397-17.674s39.565,12.415,55.868,17.674
	c16.304,5.26,28.925,17.881,35.236,23.14c6.311,5.259,16.828,11.044,16.828,14.726s4.136,24.636,4.136,24.636s-1.123,9.022,0,11.126
	c1.124,2.104-0.07,6.837,0,11.57c0.071,4.732,2.701-1.053,2.701-1.053s-8.94,13.147-9.992,22.089
	c-1.052,8.939-26.295,38.453-26.295,44.207s0.979,18.235,2.103,24.686s-0.666,33.485-0.666,33.485s62.722-70.299,65.352-83.447
	c2.629-13.146,8.141-26.489,11.864-43.124s2.335-34.711,0.758-40.495c-1.578-5.785-4.732-16.829-8.414-29.45
	c-3.682-12.622-23.666-51.013-35.235-65.212c-11.57-14.199-60.764-35.23-68.895-35.76s-41.809-3.156-51.275,0
	c-9.466,3.155-33.944,21.999-36.646,25.679c-2.456,3.54-5.164,4.152-5.164,5.348C-419.626,36.236-419.099,42.023-419.099,42.023z"/>
<path d="M-396.968,17.945c0,0-24.762,4.617-30.547,23.55s-26.999,64.687-25.332,78.36s1.141,16.47,3.77,23.14
	c2.63,6.67,3.155,8.94,4.207,13.674c1.052,4.732,9.992,20.51,9.466,25.769c-0.526,5.26,36.288,5.26,31.028,15.251
	c-5.259,9.993,5.078-41.02,5.078-41.02s-7.708-61.005-9.285-65.212c-1.578-4.208-0.526-16.304,1.578-24.192
	c2.104-7.888,7-14.199,7.708-23.139C-398.59,35.184-396.968,17.945-396.968,17.945z"/>
<path d="M-371.769,56.801c0,0-13.929,38.374-19.458,54.639c-5.53,16.266-11.287,21.562-8.01,33.132
	c3.276,11.57,5.906,46.807,6.432,49.436c0.526,2.63-21.036-33.132-21.036-33.132s-7.362-71.523-6.836-76.256
	c0.525-4.733,13.329-28.925,17.355-34.709s31.554-6.837,31.554-6.837V56.801z"/>
<path d="M-267.115,119.397c0,0-0.525,8.082,0,21.23c0.526,13.147,2.374,13.14,2.708,22.072c0.333,8.933-6.253,12.184-6.914,23.682
	c-0.662,11.497-2.495,16.414-7.889,25.819c-5.395,9.404-12.522,16.898-13.36,23.165c-0.837,6.268-2.944-0.602,5.997,8.865
	c8.94,9.466,2.63,26.295,16.829,17.881c14.199-8.415,18.932-14.199,22.613-26.296c3.682-12.096,5.26-24.754,6.837-36.042
	c1.578-11.289,3.156-27.593,3.682-31.273s0.526-19.458,0-28.925C-237.139,130.11-267.115,119.397-267.115,119.397z"/>
<path d="M-264.809,110.389c0,0-4.889,42.089-4.936,55.221c-0.047,13.131-3.155,47.444,0,48.439c3.155,0.994,9.992,2.572,15.777,4.15
	c5.785,1.577,7.889-28.399,9.466-31.555c1.578-3.155,8.283-58.375,8.283-58.375l-28.591-20.511"/>
<g>
	<g id="XMLID_1_">
		<g>
			<path d="M-266.455,123.586c3.493,0.183,4.143,0.898,3.758,4.149c-0.054,0.481-0.135,0.965-0.142,1.45
				c-0.036,1.659-0.327,3.104-2.212,3.915c-0.571,0.245-1.02,1.081-1.221,1.729c-1.353,4.431-2.585,8.895-3.938,13.328
				c-1.291,4.226-4.154,7.585-7.141,10.81c-2.239,2.417-5.34,3.587-8.562,4.396c-5.86,1.478-11.799,2.438-17.81,1.247
				c-8.467-1.681-14.148-6.393-16.718-14.317c-0.687-2.122-1.454-4.236-2.397-6.266c-0.965-2.07-2.625-3.504-5.218-3.402
				c-2.646,0.103-4.396,1.5-5.363,3.771c-0.593,1.393-1.188,2.807-1.57,4.263c-0.913,3.487-2.559,6.632-4.549,9.681
				c-3.514,5.366-8.525,8.585-14.982,9.907c-6.898,1.414-13.68,1.131-20.288-1.188c-4.289-1.505-7.518-4.196-9.742-8.008
				c-2.363-4.054-3.979-8.368-5.28-12.818c-0.365-1.246-0.886-2.492-1.587-3.595c-0.5-0.786-1.328-1.706-2.183-1.898
				c-1.593-0.356-1.889-1.35-2.272-2.54c-0.408-1.261-0.975-2.48-1.556-3.682c-0.411-0.855,0.113-2.259,1.302-2.752
				c0.878-0.367,1.855-0.603,2.811-0.714c5.961-0.696,11.926-1.34,17.896-2.005c11.649-0.92,23.174,0.239,34.701,1.386
				c3.208,0.32,6.413,0.664,9.631,0.935c3.246,0.274,6.293-0.729,9.35-1.562c12.848-3.503,25.921-5.652,39.275-6.051
				c5.18-0.155,10.364-0.132,15.548-0.188C-266.759,123.567-266.607,123.579-266.455,123.586z M-266.416,129.349
				c-0.026-0.127-0.05-0.254-0.083-0.383c-2.606-0.521-3.971-0.258-4.962,1.232C-269.6,129.887-268.008,129.619-266.416,129.349z
				 M-371.709,136.343c-0.017-0.081-0.038-0.164-0.058-0.245c-0.569,0.036-1.141,0.071-1.79,0.111
				c-0.05-0.455-0.095-0.84-0.138-1.226c-0.139-0.009-0.279-0.021-0.418-0.03c-0.116,0.667-0.232,1.333-0.364,2.091
				C-373.393,136.771-372.554,136.556-371.709,136.343z M-375.36,136.514c-0.543-0.001-1.09,0-1.914,0.001
				c0.204-0.453,0.394-0.876,0.637-1.425c-0.467,0.029-1.224,0.076-1.978,0.123c0.001,0.07,0.006,0.143,0.001,0.213
				c0.354-0.022,0.704-0.044,1.073-0.066C-377.849,137.552-377.849,137.552-375.36,136.514z M-392.693,137.132
				c1.895,0.093,3.54,0.175,5.45,0.266C-387.961,135.675-391.014,135.535-392.693,137.132z"/>
			<path fill="#FFFFFF" d="M-266.499,128.965c0.033,0.129,0.057,0.256,0.083,0.383c-1.592,0.271-3.184,0.539-5.045,0.849
				C-270.47,128.707-269.105,128.444-266.499,128.965z"/>
			<path fill="#FFFFFF" d="M-371.768,136.098c0.021,0.081,0.041,0.164,0.058,0.245c-0.845,0.213-1.684,0.428-2.769,0.703
				c0.132-0.758,0.248-1.425,0.364-2.091c0.14,0.009,0.279,0.021,0.418,0.03c0.042,0.385,0.088,0.771,0.138,1.226
				C-372.909,136.169-372.336,136.134-371.768,136.098z"/>
			<path fill="#FFFFFF" d="M-377.274,136.515c0.824-0.001,1.371-0.003,1.914-0.001c-2.489,1.038-2.489,1.038-2.18-1.154
				c-0.369,0.022-0.72,0.044-1.073,0.066c0.005-0.07,0-0.143-0.001-0.213c0.753-0.047,1.51-0.094,1.978-0.123
				C-376.88,135.639-377.07,136.062-377.274,136.515z"/>
			<path fill="#FFFFFF" d="M-387.243,137.398c-1.91-0.091-3.555-0.173-5.45-0.266C-391.014,135.535-387.961,135.675-387.243,137.398
				z"/>
		</g>
		<g>
		</g>
	</g>
</g>
<path d="M-378.115,74.375c0,0,27.314,17.082,44.966,21.026c17.652,3.944,26.33,2.871,33.43,10.113s14.815,11.753,19.722,12.036
	c4.906,0.282,23.129,1.647,26.311,1.058c3.183-0.589-24.733-44.233-24.733-44.233s-44.176-21.572-46.542-23.15
	c-2.367-1.578-51.548,0-51.548,0L-378.115,74.375z"/>
<path d="M-412.622,214.562c0,0,10.55,14.021,15.057,29.02s8.963,13.695,10.322,26.085s2.663,17.281,2.989,22.172
	s2.608,4.892,2.608,3.913s-2.089-14.675,3.684-29.347s10.99-20.866,10.011-26.084c0,0,1.334-7.498,1.63-10.761
	s-2.324-5.829-2.324-5.829l-2.271-2.314l-29.318-14.354L-412.622,214.562z"/>
</svg>
